<svg xmlns="http://www.w3.org/2000/svg" width="100" height="100" viewBox="0 0 100 100">
<g>
<path d="M 57.39 53.64 C52.61,57.28 49.83,58.15 52.13,55.28 C54.70,52.06 58.49,49.09 61.50,47.94 C63.15,47.31 65.40,46.40 66.50,45.92 C67.60,45.44 69.75,44.59 71.28,44.03 C73.76,43.13 73.96,43.21 73.11,44.79 C72.60,45.75 69.84,47.38 66.98,48.41 C64.13,49.44 59.81,51.79 57.39,53.64 Z" fill="rgb(44,78,85)"/>
<path d="M 48.49 66.47 C44.84,74.32 43.93,75.57 41.64,75.76 C38.68,76.00 38.38,75.38 40.35,73.08 C41.92,71.24 45.04,65.26 47.46,59.41 C50.67,51.67 55.79,47.69 67.22,44.01 C73.99,41.83 77.08,42.00 75.06,44.43 C74.49,45.11 70.97,46.87 67.24,48.34 C66.07,48.80 64.98,49.25 63.96,49.71 C65.04,49.19 66.09,48.73 66.98,48.41 C69.84,47.38 72.60,45.75 73.11,44.79 C73.96,43.21 73.76,43.13 71.28,44.03 C69.75,44.59 67.60,45.44 66.50,45.92 C65.40,46.40 63.15,47.31 61.50,47.94 C58.49,49.09 54.70,52.06 52.13,55.28 C49.91,58.06 52.43,57.34 56.92,53.99 C53.60,56.82 51.24,60.53 48.49,66.47 Z" fill="rgb(63,115,122)"/>
<path d="M 75.67 43.25 C75.71,42.02 72.64,42.26 67.22,44.01 C55.79,47.69 50.67,51.67 47.46,59.41 C45.04,65.26 41.92,71.24 40.35,73.08 C39.54,74.03 39.11,74.69 39.10,75.12 C38.42,74.30 38.78,72.69 40.15,70.24 C41.15,68.45 42.22,65.59 42.52,63.88 C43.72,57.09 49.40,49.00 55.41,45.54 C58.80,43.59 63.46,42.20 72.62,40.43 C73.23,40.31 74.35,40.60 75.12,41.08 C76.05,41.66 76.22,42.39 75.67,43.25 ZM 57.39 53.64 C59.05,52.37 61.60,50.87 63.96,49.71 C64.98,49.25 66.07,48.80 67.24,48.34 C67.75,48.13 68.26,47.93 68.76,47.72 C68.24,47.95 67.70,48.19 67.14,48.43 C61.99,50.61 58.64,52.40 56.00,54.82 C56.30,54.54 56.60,54.26 56.92,53.99 C57.07,53.88 57.23,53.76 57.39,53.64 ZM 41.67 75.76 C42.27,75.70 42.77,75.58 43.25,75.28 C42.78,75.58 42.29,75.71 41.72,75.75 C41.70,75.75 41.69,75.76 41.67,75.76 Z" fill="rgb(81,143,152)"/>
<path d="M 75.97 42.19 C75.92,41.77 75.63,41.40 75.12,41.08 C74.35,40.60 73.23,40.31 72.62,40.43 C63.46,42.20 58.80,43.59 55.41,45.54 C49.40,49.00 43.72,57.09 42.52,63.88 C42.22,65.59 41.15,68.45 40.15,70.24 C38.78,72.69 38.42,74.30 39.10,75.12 C39.09,75.27 39.13,75.39 39.22,75.48 C37.52,74.71 37.25,72.29 37.70,66.62 C38.34,58.42 40.03,55.05 47.46,47.14 C54.61,39.53 57.64,37.65 63.96,36.90 C70.87,36.09 76.00,38.04 76.00,41.49 C76.00,41.74 75.99,41.97 75.97,42.19 ZM 70.10 47.14 C71.63,46.46 72.96,45.80 73.88,45.27 C73.00,45.83 71.79,46.42 70.10,47.14 ZM 75.67 43.25 C75.75,43.13 75.81,43.02 75.86,42.90 C75.79,43.14 75.71,43.37 75.59,43.59 C75.64,43.46 75.67,43.35 75.67,43.25 ZM 41.75 75.75 C42.31,75.70 42.79,75.57 43.25,75.28 L 43.25 75.28 C43.28,75.26 43.32,75.24 43.35,75.22 C42.86,75.55 42.37,75.70 41.81,75.74 C41.79,75.75 41.77,75.75 41.75,75.75 Z" fill="rgb(105,164,174)"/>
<path d="M 24.00 51.55 C24.00,51.58 24.00,51.62 24.00,51.65 C24.01,51.73 24.01,51.80 23.98,51.84 C23.83,52.02 22.92,51.59 17.82,49.15 C17.41,48.95 16.97,48.74 16.50,48.52 C10.71,45.75 9.99,45.15 12.32,45.08 C14.73,45.01 24.00,50.14 24.00,51.55 ZM 69.00 82.12 C69.00,83.34 67.96,83.17 64.66,81.38 C63.10,80.54 62.07,79.59 62.38,79.29 C63.14,78.52 69.00,81.03 69.00,82.12 Z" fill="rgb(152,97,115)"/>
<path d="M 32.00 58.19 C32.00,59.71 30.50,58.95 27.53,55.92 C25.90,54.26 25.30,53.18 26.21,53.53 C27.47,54.01 27.74,53.70 27.34,52.19 C26.97,50.77 28.51,48.43 32.90,43.76 C36.24,40.21 40.36,35.55 42.05,33.40 C43.75,31.26 46.93,28.72 49.13,27.77 C53.04,26.07 53.19,26.08 56.11,28.24 C58.28,29.84 58.70,30.59 57.66,30.97 C55.96,31.60 32.00,57.02 32.00,58.19 Z" fill="rgb(165,164,178)"/>
<path d="M 32.00 58.19 C32.00,57.02 55.96,31.60 57.66,30.97 C58.70,30.59 58.28,29.84 56.11,28.24 C53.29,26.16 53.05,26.07 49.53,27.59 L 53.21 25.99 L 56.85 28.80 C58.86,30.34 63.99,33.31 68.25,35.41 C69.89,36.22 71.20,36.89 72.24,37.48 C74.54,38.27 75.94,39.63 76.00,41.39 C75.96,40.09 75.11,39.11 72.24,37.48 C70.12,36.76 67.24,36.52 63.96,36.90 C57.64,37.65 54.61,39.53 47.46,47.14 C40.03,55.05 38.34,58.42 37.70,66.62 C37.37,70.72 37.42,73.12 38.12,74.42 C37.07,73.15 35.97,70.78 34.15,66.52 C32.65,62.99 30.10,58.74 28.30,56.69 C30.76,59.07 32.00,59.57 32.00,58.19 ZM 27.30 53.69 C27.57,53.54 27.57,53.06 27.34,52.19 C27.57,53.07 27.58,53.54 27.30,53.69 ZM 41.75 75.75 L 41.77 75.75 C41.76,75.75 41.75,75.75 41.75,75.75 C41.75,75.75 41.75,75.75 41.75,75.75 Z" fill="rgb(133,170,181)"/>
<path d="M 81.88 90.07 C80.57,92.43 78.94,94.54 78.25,94.76 C76.54,95.32 76.67,94.68 79.10,90.56 C80.25,88.60 80.91,87.00 80.56,87.00 C79.37,87.00 83.49,83.24 87.00,81.12 C90.58,78.96 93.00,78.41 93.00,79.76 C93.00,80.17 91.03,81.70 88.63,83.15 C86.02,84.73 83.31,87.51 81.88,90.07 Z" fill="rgb(178,118,48)"/>
<path d="M 48.95 17.54 C51.52,23.39 53.95,26.79 58.81,30.14 C58.01,29.63 57.34,29.17 56.85,28.80 L 53.21 25.99 L 49.53 27.59 L 49.53 27.59 C49.40,27.65 49.27,27.70 49.13,27.77 C47.11,28.64 44.25,30.86 42.49,32.88 C43.03,32.02 43.41,31.22 43.67,30.38 C44.32,28.32 44.26,26.05 44.16,22.20 C44.16,21.86 44.15,21.51 44.14,21.14 C44.01,15.84 43.68,10.71 43.39,9.75 C43.10,8.79 43.37,8.00 43.99,8.00 C44.61,8.00 44.84,8.45 44.50,9.00 C44.16,9.55 44.28,10.00 44.76,10.00 C45.24,10.00 47.13,13.39 48.95,17.54 ZM 24.00 51.55 C24.00,50.36 17.34,46.49 13.84,45.38 L 16.50 45.61 C20.35,45.94 24.48,46.83 25.68,47.58 C27.72,48.86 28.23,48.57 33.32,43.23 C34.15,42.35 34.92,41.55 35.64,40.80 C34.71,41.82 33.78,42.83 32.90,43.76 C28.51,48.43 26.97,50.77 27.34,52.19 C27.57,53.06 27.57,53.54 27.30,53.69 C27.09,53.79 26.74,53.73 26.21,53.53 C25.30,53.18 25.90,54.26 27.53,55.92 C27.80,56.19 28.06,56.45 28.30,56.69 C29.11,57.60 30.06,58.96 31.00,60.49 C27.96,55.80 24.02,52.42 18.19,49.32 C22.96,51.61 23.83,52.02 23.98,51.84 C24.01,51.80 24.01,51.73 24.00,51.65 C24.00,51.62 24.00,51.58 24.00,51.55 ZM 11.40 45.17 C10.81,45.32 11.01,45.65 12.23,46.36 L 9.50 45.01 Z" fill="rgb(180,136,158)"/>
<path d="M 69.00 82.07 C69.00,82.08 69.00,82.10 69.00,82.11 C68.95,81.01 63.14,78.53 62.38,79.29 C62.36,79.31 62.34,79.33 62.33,79.36 C61.67,78.01 62.80,76.63 65.75,75.12 C70.09,72.89 73.10,69.83 75.39,65.28 C77.33,61.45 79.08,61.78 81.87,66.50 L 83.83 69.83 L 81.66 70.41 C79.33,71.04 69.00,80.54 69.00,82.07 ZM 43.82 8.02 C43.32,8.16 43.13,8.88 43.39,9.75 C43.68,10.71 44.01,15.84 44.14,21.14 C44.15,21.51 44.16,21.86 44.16,22.20 L 44.16 22.20 C44.21,23.85 44.24,25.21 44.21,26.38 C43.91,25.10 43.28,23.62 42.33,21.75 C40.54,18.19 40.85,7.00 42.74,7.00 C42.96,7.00 43.34,7.37 43.82,8.02 ZM 11.40 45.17 L 10.68 45.11 C10.55,44.70 10.83,44.31 11.36,43.79 C12.70,42.44 13.59,42.36 16.73,43.29 C18.80,43.90 22.16,45.42 24.19,46.67 L 25.46 47.46 C24.03,46.73 20.14,45.92 16.50,45.61 L 13.84 45.38 C13.21,45.18 12.69,45.07 12.32,45.08 C11.92,45.10 11.61,45.12 11.40,45.17 ZM 11.51 46.00 L 12.23 46.36 C13.11,46.86 14.50,47.56 16.50,48.52 C16.97,48.74 17.41,48.95 17.82,49.15 L 18.19 49.32 C22.00,51.35 25.01,53.49 27.48,56.05 C24.67,53.15 21.20,50.82 16.68,48.69 C14.02,47.42 12.39,46.62 11.51,46.00 ZM 48.95 17.54 C48.89,17.41 48.84,17.28 48.78,17.14 C50.79,21.41 52.44,24.28 54.64,26.66 C52.30,24.23 50.66,21.43 48.95,17.54 ZM 46.28 12.09 C45.56,10.80 44.99,10.00 44.76,10.00 C44.28,10.00 44.16,9.55 44.49,9.01 C45.03,9.84 45.64,10.89 46.28,12.09 ZM 65.31 81.73 C66.63,82.42 67.52,82.80 68.10,82.89 C67.52,82.80 66.63,82.42 65.31,81.73 ZM 36.06 40.34 C35.92,40.49 35.78,40.65 35.64,40.80 C35.57,40.87 35.50,40.94 35.43,41.02 C35.64,40.79 35.85,40.57 36.06,40.34 ZM 42.53 32.81 C42.52,32.84 42.50,32.86 42.49,32.88 C42.47,32.90 42.45,32.92 42.44,32.94 C42.47,32.90 42.50,32.86 42.53,32.81 Z" fill="rgb(205,135,154)"/>
<path d="M 36.06 40.34 C35.85,40.57 35.64,40.79 35.43,41.02 C34.78,41.70 34.07,42.44 33.32,43.23 C28.23,48.57 27.72,48.86 25.68,47.58 C25.61,47.54 25.54,47.50 25.46,47.46 L 24.19 46.67 C22.16,45.42 18.80,43.90 16.73,43.29 C13.59,42.36 12.70,42.44 11.36,43.79 C10.83,44.31 10.55,44.70 10.68,45.11 L 10.34 45.08 C8.22,43.33 9.05,42.25 12.75,41.65 C29.35,38.98 34.34,34.10 38.45,16.51 C39.91,10.25 40.97,7.13 42.40,7.14 C40.82,8.42 40.66,18.42 42.33,21.75 C43.28,23.62 43.91,25.10 44.21,26.38 C44.18,27.95 44.04,29.20 43.67,30.38 C43.42,31.20 43.05,31.98 42.53,32.81 C42.50,32.86 42.47,32.90 42.44,32.94 C42.30,33.10 42.17,33.25 42.05,33.40 C40.87,34.90 38.51,37.62 36.06,40.34 ZM 46.28 12.09 L 46.28 12.09 C45.64,10.89 45.03,9.84 44.49,9.01 C44.50,9.01 44.50,9.00 44.50,9.00 C44.51,8.98 44.52,8.96 44.53,8.94 C45.33,10.11 46.26,11.85 47.37,14.15 C46.98,13.38 46.62,12.68 46.28,12.09 ZM 16.72 48.70 C21.22,50.84 24.68,53.16 27.48,56.05 L 27.48 56.05 C27.86,56.44 28.23,56.84 28.59,57.26 C25.63,53.84 21.88,51.19 16.72,48.70 ZM 48.77 17.12 C50.79,21.41 52.45,24.30 54.66,26.68 C54.65,26.67 54.64,26.66 54.64,26.66 C52.44,24.28 50.79,21.41 48.78,17.14 ZM 43.82 8.02 C43.81,8.01 43.80,7.99 43.78,7.97 C43.80,7.99 43.81,8.01 43.82,8.02 C43.82,8.02 43.82,8.02 43.82,8.02 Z" fill="rgb(206,156,179)"/>
<path d="M 92.82 79.26 C92.20,78.62 90.01,79.30 87.00,81.12 C83.49,83.24 79.37,87.00 80.56,87.00 C80.91,87.00 80.25,88.60 79.10,90.56 C78.21,92.06 77.63,93.10 77.34,93.78 C76.69,93.00 75.90,91.77 75.18,90.34 L 72.85 85.74 L 78.04 80.87 C83.44,75.80 85.87,75.07 90.45,77.16 C92.00,77.86 92.80,78.51 92.82,79.26 ZM 81.88 90.07 C80.57,92.43 79.05,94.49 78.50,94.65 C78.49,94.65 78.47,94.65 78.46,94.65 C79.23,94.15 80.69,92.21 81.88,90.07 ZM 90.65 81.85 C90.09,82.25 89.42,82.68 88.63,83.15 C89.36,82.71 90.04,82.27 90.65,81.85 Z" fill="rgb(219,155,65)"/>
<path d="M 69.00 82.12 C69.00,82.12 69.00,82.11 69.00,82.11 C69.00,82.10 69.00,82.08 69.00,82.07 C69.00,80.54 79.33,71.04 81.66,70.41 L 83.83 69.83 L 82.75 68.00 C84.33,70.48 86.80,72.84 89.24,74.19 C93.29,76.42 94.54,77.94 92.97,79.87 C92.99,79.83 93.00,79.79 93.00,79.76 C93.00,79.54 92.94,79.38 92.82,79.26 C92.80,78.51 92.00,77.86 90.45,77.16 C85.87,75.07 83.44,75.80 78.04,80.87 L 72.85 85.74 L 75.18 90.34 C75.90,91.77 76.69,93.00 77.34,93.78 C77.23,94.03 77.16,94.22 77.13,94.38 C76.53,94.02 75.93,93.21 75.25,91.98 C72.49,86.96 70.35,84.48 66.98,82.53 C67.44,82.73 67.81,82.84 68.10,82.89 L 68.10 82.89 C68.75,82.98 69.00,82.72 69.00,82.12 ZM 81.88 90.07 C83.27,87.58 85.86,84.90 88.40,83.30 C85.62,85.16 83.24,87.64 81.87,90.09 C81.10,91.47 80.44,92.52 79.84,93.27 C80.47,92.43 81.20,91.29 81.88,90.07 ZM 64.64 75.73 C63.16,76.62 62.34,77.47 62.18,78.30 C62.26,77.45 63.08,76.61 64.64,75.73 ZM 75.78 64.56 C75.65,64.78 75.52,65.02 75.39,65.28 C74.76,66.54 74.07,67.68 73.31,68.73 C73.97,67.82 74.56,66.84 75.10,65.78 C75.34,65.33 75.56,64.92 75.78,64.56 ZM 71.00 71.41 C70.34,72.05 69.64,72.64 68.88,73.19 C69.64,72.64 70.34,72.04 71.00,71.41 Z" fill="rgb(216,155,111)"/>
<path d="M 43.12 7.21 C42.97,7.07 42.84,7.00 42.74,7.00 C42.62,7.00 42.50,7.05 42.40,7.14 C40.97,7.13 39.91,10.25 38.45,16.51 C34.34,34.10 29.35,38.98 12.75,41.65 C9.05,42.25 8.22,43.33 10.34,45.08 L 9.86 45.04 C4.54,41.47 6.47,39.15 15.25,35.11 C27.86,29.30 28.93,28.15 35.96,12.83 C38.75,6.75 40.65,4.74 43.12,7.21 ZM 16.72 48.70 C17.13,48.90 17.53,49.10 17.92,49.30 C17.64,49.16 17.35,49.02 17.05,48.88 C15.61,48.20 14.33,47.57 13.20,46.98 C14.08,47.44 15.23,48.00 16.68,48.69 C16.70,48.69 16.71,48.70 16.72,48.70 ZM 11.51 46.00 C11.83,46.23 12.26,46.48 12.80,46.77 C12.11,46.40 11.49,46.05 10.92,45.71 ZM 29.15 57.94 C29.81,58.75 30.42,59.59 31.00,60.49 C31.02,60.53 31.05,60.57 31.08,60.61 C30.47,59.67 29.83,58.78 29.15,57.94 ZM 43.83 8.02 C43.83,8.02 43.83,8.02 43.82,8.02 C43.81,8.01 43.80,7.99 43.78,7.97 C43.71,7.88 43.64,7.78 43.57,7.70 C43.66,7.80 43.74,7.91 43.83,8.02 Z" fill="rgb(227,173,197)"/>
<path d="M 0.00 50.00 L 0.00 0.00 L 50.00 0.00 L 100.00 0.00 L 100.00 50.00 L 100.00 100.00 L 50.00 100.00 L 0.00 100.00 L 0.00 50.00 ZM 81.87 90.09 C83.36,87.41 86.07,84.71 89.17,82.80 C95.09,79.16 95.10,77.42 89.24,74.19 C86.64,72.75 84.01,70.17 82.46,67.51 C78.99,61.60 77.43,61.23 75.10,65.78 C72.89,70.10 69.82,73.10 65.25,75.41 C60.95,77.58 61.15,79.52 65.91,81.95 C69.92,84.00 72.21,86.45 75.25,91.98 C77.43,95.94 78.84,95.53 81.87,90.09 ZM 48.49 66.47 C53.38,55.94 56.98,52.42 66.94,48.44 C74.89,45.26 76.00,44.41 76.00,41.49 C76.00,39.66 74.51,38.49 68.25,35.41 C55.79,29.28 53.29,26.87 48.37,16.27 C42.58,3.79 40.38,3.18 35.96,12.83 C28.93,28.15 27.86,29.30 15.25,35.11 C3.70,40.43 4.01,42.75 17.05,48.88 C25.58,52.88 30.50,57.96 34.14,66.50 C37.79,75.06 38.58,76.01 41.75,75.75 C43.90,75.57 44.91,74.18 48.49,66.47 Z" fill="rgb(254,254,254)"/>
</g>
</svg>